<?xml version='1.0' encoding='utf-8'?>
<svg
  version='1.1'
  xmlns='http://www.w3.org/2000/svg'
  viewBox='150 -150 400 400'
>
  <style type='text/css'>
    .cloud {
      fill:#0071BC;
    }

    .text path {
      fill:#363636;
    }
  </style>
  <path class='cloud' d='M475.5,19.5c0.7,8.6-2,16.7-7.5,22.9c-5.9,6.6-14.7,10.2-24.6,10.2H229.1l0,0c-0.1,0-0.2,0-0.3,0h-0.1h-0.2l0,0
    c-8.7-0.1-16.9-3.5-23-9.6c-6.5-6.4-10-15-10.1-24.1l0,0c0-16.9,11.5-30.6,27.2-33.2c2.1-14.1,14.4-25.6,29.6-28
    c0.9-5.6,3.6-11,7.9-15.4c6.2-6.4,14.6-10,23.2-10c11.1,0,20.8,6,26,15c6.1-21.8,26.1-37.8,49.8-37.8c25.9,0,47.5,19.2,51.1,44.2
    c13-9.7,30.3-8.8,43.3,3.4l-1.4-1.2c10.4,8.4,14,19.8,13.5,29.4C465.3-9,463.4-4,460,0.1c3.3,1.1,6,3,8.6,5.6
    c3.6,3.6,6.1,8.1,6.8,13.1l0,0c0,0.2,0,0.4,0,0.6C475.5,19.2,475.5,19.3,475.5,19.5z M491.6-61.2c-7.6-10.3-18.9-17.9-31.3-21.1
    c-2.8-0.6-5.7,1.3-6.3,4c-1.1,2.8,0.7,6.4,3.7,7c12.5,3.3,23.3,12.1,29,23.7c4.7,9.5,5.9,20.7,3.3,31c-0.7,2.9,1.4,6,4.4,6.4
    c2.7,0.8,5.7-0.8,6.6-3.4C505.1-29.7,501.6-47.8,491.6-61.2z M455.9-62.8c-4.3-0.8-7.6,4.5-5.7,8.2c0.7,1.6,2.3,2.7,4,3.1
    c6.5,1.7,12.2,6.2,15.2,12.2c2.7,5.3,3.3,11.5,1.8,17.2c-0.8,2.9,1.3,6.1,4.3,6.6c2.7,0.8,5.9-0.8,6.7-3.6
    c2.8-10.2,0.7-21.6-5.5-30.1C471.7-56,464.2-61.2,455.9-62.8z'
  />
  <g class='title text'>
    <path d='M195.5,70.4h27.7v7.9h-9.4v31.5h-9V78.3h-9.4L195.5,70.4L195.5,70.4z' />
    <path d='M237.4,109.9h-9V70.4h9v15.8h12.7V70.4h9v39.5h-9V94h-12.7C237.4,94,237.4,109.9,237.4,109.9z' />
    <path d='M289.3,78.4h-13.5v7.8h13v7.9h-13v7.9h13.6v7.9h-22.7V70.4h22.6V78.4L289.3,78.4z' />
    <path d='M306.6,70.4h27.7v7.9h-9.4v31.5h-9V78.3h-9.4L306.6,70.4L306.6,70.4z' />
    <path d='M348.5,109.9h-9V70.4h9v15.8h12.7V70.4h9v39.5h-9V94h-12.7V109.9z' />
    <path d='M386.9,109.9h-9V70.4h9V109.9z' />
    <path d='M403.5,109.9h-9V70.4h9l15.6,24.4h0.1V70.4h9v39.5h-9l-15.6-24.4h-0.1L403.5,109.9L403.5,109.9z' />
    <path d='M471.5,96.3c-2.2,10-10.5,14.3-18.2,14.3c-10.6,0-19.2-9.2-19.2-20.4c0-11.4,8.2-20.4,19.2-20.4c7,0,11.7,2.6,15.2,6.7l-5.9,6.5c-2.3-3.7-5.3-5-8.8-5c-5.5,0-10,5.5-10,12.3c0,6.7,4.5,12.1,10,12.1c4.3,0,8.6-2.8,8.6-7.6h-9v-7h18.2v8.5H471.5z' />
    <path d='M503.3,73.5l-3.7,7.2c0,0-3.9-2.7-7.9-2.7c-3.1,0-4.6,1.3-4.6,3.5s3.8,3.8,8.2,5.7c4.4,1.8,9.3,5.6,9.3,10.8c0,9.4-7.2,12.7-14.9,12.7c-9.3,0-14.8-5.3-14.8-5.3l4.5-7.6c0,0,5.3,4.4,9.7,4.4c2,0,5.7-0.2,5.7-3.9c0-2.8-4.2-4.2-8.9-6.5c-4.8-2.3-7.5-6-7.5-10.1c0-7.3,6.5-12.1,12.8-12.1C498.2,69.7,503.3,73.5,503.3,73.5z' />
  </g>
  <g class='subtitle text'>
    <path d='M204.4,147.3H199v-23.7h5.4l9.5,14.8l0,0v-14.8h5.4v23.7h-5.4l-9.5-14.8l0,0V147.3z' />
    <path d='M260.9,128.2h-8.2v4.6h7.8v4.8h-7.8v4.8h8.2v4.8h-13.6v-23.7h13.6V128.2z' />
    <path d='M286.9,123.5h16.7v4.8H298v18.9h-5.4v-18.9H287v-4.8H286.9z' />
    <path d='M344.6,134l-3.8,13.3h-6l-6.7-23.7h5.9l4,16.4h0.1l4.3-16.4h4l4.3,16.4h0.4l4-16.4h6l-6.7,23.7h-6L344.6,134z' />
    <path d='M396.9,123.1c6.6,0,12,5.4,12,12.2c0,7-5.1,12.3-12,12.3c-7.1,0-12-5.4-12-12.3C384.9,128.4,390.3,123.1,396.9,123.1z M396.9,142.4c4.3,0,6.1-3.5,6.1-7.1c0-3.4-2-7.1-6.1-7.1c-4.2,0-6.1,3.5-6.1,7.1S392.5,142.4,396.9,142.4z' />
    <path d='M444.2,123.5c4.4,0,7.8,2.4,7.8,7.1c0,3.5-2,6-4.9,6.8l8.2,9.9h-6.8l-7.2-9.4v9.4h-5.4v-23.7L444.2,123.5L444.2,123.5z M441.7,134.1c2.1,0,4.4-0.1,4.4-3.2s-2.4-3.2-4.4-3.2h-0.6v6.2h0.6V134.1z' />
    <path d='M494.9,147.3l-8.8-10.1v10.1h-5.4v-23.7h5.4v9.8l8.2-9.8h6.6l-9.7,11.2l11,12.5H494.9L494.9,147.3z' />
  </g>
  <g class='city text'>
    <path d="M218.8 195l-1.1-14.2h-0.1l-4.9 14h-3.2l-4.9-14H204.3L203.20000000000002 195h-5.5l2.1-23.9h5.8l5.3 13.8L216.3 171.1h5.8L224.3 195H218.8z" />
<path d="M266.68333333333334 171.1L276.28333333333336 195h-5.9l-1.8-4.8h-9.1L257.78333333333336 195h-5.9l9.7-23.9H266.68333333333334zM266.8833333333334 185.4l-2.7-7h-0.1l-2.7 7H266.8833333333334z" />
<path d="M307.1166666666667 171.1h8.6c2.3 0 4.2 0.6 5.6 1.8 1.5 1.2 2.2 3 2.2 5.3 0 1.8-0.4 3.2-1.3 4.4-0.9 1.2-2.1 2-3.6 2.5l8.2 9.9h-6.9l-7.3-9.5V195h-5.5V171.1zM312.6166666666667 181.7h0.6c0.5 0 0.9 0 1.3 0s0.7-0.1 1.2-0.2 0.8-0.3 1.1-0.5c0.3-0.2 0.5-0.5 0.7-0.9 0.2-0.4 0.3-0.9 0.3-1.5s-0.1-1.1-0.3-1.5c-0.2-0.4-0.4-0.7-0.7-0.9-0.3-0.2-0.6-0.4-1.1-0.5s-0.8-0.2-1.2-0.2-0.8 0-1.3 0h-0.6V181.7z" />
<path d="M359.95 171.1V195h-5.5V171.1H359.95z" />
<path d="M386.18333333333334 171.1h7.4c2.2 0 4 0.5 5.4 1.4s2 2.5 2 4.7c0 2.4-1 4.1-3 5.1 3.4 0.6 5.1 2.6 5.1 6 0 2-0.7 3.6-2.1 4.8s-3.3 1.8-5.7 1.8h-9.1V171.1zM391.68333333333334 180.4h0.4c1.2 0 2.1-0.2 2.7-0.6 0.6-0.4 0.9-1.1 0.9-2.1 0-1.6-1.2-2.4-3.6-2.4h-0.4V180.4zM391.68333333333334 190.8h1.7c2.7 0 4-0.9 4-2.7 0-1.1-0.3-1.8-1-2.3s-1.7-0.7-3-0.7h-1.7V190.8z" />
<path d="M430.06666666666666 183c0-3.5 1.2-6.4 3.5-8.8 2.4-2.4 5.2-3.6 8.5-3.6 3.3 0 6.2 1.2 8.5 3.6 2.3 2.4 3.5 5.3 3.5 8.8 0 3.5-1.2 6.4-3.5 8.8-2.3 2.4-5.2 3.6-8.6 3.6-3.5 0-6.4-1.2-8.7-3.6C431.1666666666667 189.5 430.06666666666666 186.6 430.06666666666666 183zM435.9666666666667 183c0 1.3 0.2 2.4 0.6 3.4s1.1 1.9 2 2.6c1 0.7 2.2 1.1 3.6 1.1 2 0 3.6-0.7 4.6-2.1 1-1.4 1.6-3.1 1.6-5 0-2-0.5-3.6-1.6-5-1.1-1.4-2.6-2.1-4.6-2.1-2 0-3.5 0.7-4.6 2.1C436.4666666666667 179.4 435.9666666666667 181.1 435.9666666666667 183z" />
<path d="M482.5 171.1h8.6c2.3 0 4.2 0.6 5.6 1.8 1.5 1.2 2.2 3 2.2 5.3 0 1.8-0.4 3.2-1.3 4.4-0.9 1.2-2.1 2-3.6 2.5l8.2 9.9h-6.9l-7.3-9.5V195h-5.5V171.1zM488 181.7h0.6c0.5 0 0.9 0 1.3 0s0.7-0.1 1.2-0.2 0.8-0.3 1.1-0.5c0.3-0.2 0.5-0.5 0.7-0.9 0.2-0.4 0.3-0.9 0.3-1.5s-0.1-1.1-0.3-1.5c-0.2-0.4-0.4-0.7-0.7-0.9-0.3-0.2-0.6-0.4-1.1-0.5s-0.8-0.2-1.2-0.2-0.8 0-1.3 0h-0.6V181.7z" />
  </g>
</svg>
