  0
SECTION
  2
BLOCKS
  0
ENDSEC
  0
SECTION
  2
ENTITIES
  0
LINE
  8
0
 10
-36.993
 11
-36.993
 20
-8.72
 21
-8.28
  0
LINE
  8
0
 10
-36.993
 11
-36.938
 20
-8.28
 21
-7.844
  0
LINE
  8
0
 10
-36.938
 11
-36.829
 20
-7.844
 21
-7.418
  0
LINE
  8
0
 10
-36.829
 11
-36.667
 20
-7.418
 21
-7.01
  0
LINE
  8
0
 10
-36.667
 11
-36.455
 20
-7.01
 21
-6.625
  0
LINE
  8
0
 10
-36.455
 11
-36.197
 20
-6.625
 21
-6.269
  0
LINE
  8
0
 10
-36.197
 11
-35.896
 20
-6.269
 21
-5.949
  0
LINE
  8
0
 10
-35.896
 11
-35.557
 20
-5.949
 21
-5.668
  0
LINE
  8
0
 10
-35.557
 11
-35.186
 20
-5.668
 21
-5.433
  0
LINE
  8
0
 10
-35.186
 11
-34.788
 20
-5.433
 21
-5.246
  0
LINE
  8
0
 10
-34.788
 11
-34.37
 20
-5.246
 21
-5.11
  0
LINE
  8
0
 10
-34.37
 11
-33.939
 20
-5.11
 21
-5.028
  0
LINE
  8
0
 10
-33.939
 11
-33.5
 20
-5.028
 21
-5
  0
LINE
  8
0
 10
-33.5
 11
-33.061
 20
-5
 21
-5.028
  0
LINE
  8
0
 10
-33.061
 11
-32.63
 20
-5.028
 21
-5.11
  0
LINE
  8
0
 10
-32.63
 11
-32.212
 20
-5.11
 21
-5.246
  0
LINE
  8
0
 10
-32.212
 11
-31.814
 20
-5.246
 21
-5.433
  0
LINE
  8
0
 10
-31.814
 11
-31.443
 20
-5.433
 21
-5.668
  0
LINE
  8
0
 10
-31.443
 11
-31.104
 20
-5.668
 21
-5.949
  0
LINE
  8
0
 10
-31.104
 11
-30.803
 20
-5.949
 21
-6.269
  0
LINE
  8
0
 10
-30.803
 11
-30.545
 20
-6.269
 21
-6.625
  0
LINE
  8
0
 10
-30.545
 11
-30.333
 20
-6.625
 21
-7.01
  0
LINE
  8
0
 10
-30.333
 11
-30.171
 20
-7.01
 21
-7.418
  0
LINE
  8
0
 10
-30.171
 11
-30.062
 20
-7.418
 21
-7.844
  0
LINE
  8
0
 10
-30.062
 11
-30.007
 20
-7.844
 21
-8.28
  0
LINE
  8
0
 10
-30.007
 11
-30.007
 20
-8.28
 21
-8.72
  0
LINE
  8
0
 10
-30.007
 11
-30.062
 20
-8.72
 21
-9.156
  0
LINE
  8
0
 10
-30.062
 11
-30.171
 20
-9.156
 21
-9.582
  0
LINE
  8
0
 10
-30.171
 11
-30.333
 20
-9.582
 21
-9.99
  0
LINE
  8
0
 10
-30.333
 11
-30.545
 20
-9.99
 21
-10.375
  0
LINE
  8
0
 10
-30.545
 11
-30.803
 20
-10.375
 21
-10.731
  0
LINE
  8
0
 10
-30.803
 11
-31.104
 20
-10.731
 21
-11.051
  0
LINE
  8
0
 10
-31.104
 11
-31.443
 20
-11.051
 21
-11.332
  0
LINE
  8
0
 10
-31.443
 11
-31.814
 20
-11.332
 21
-11.567
  0
LINE
  8
0
 10
-31.814
 11
-32.212
 20
-11.567
 21
-11.754
  0
LINE
  8
0
 10
-32.212
 11
-32.63
 20
-11.754
 21
-11.89
  0
LINE
  8
0
 10
-32.63
 11
-33.061
 20
-11.89
 21
-11.972
  0
LINE
  8
0
 10
-33.061
 11
-33.5
 20
-11.972
 21
-12
  0
LINE
  8
0
 10
-33.5
 11
-33.939
 20
-12
 21
-11.972
  0
LINE
  8
0
 10
-33.939
 11
-34.37
 20
-11.972
 21
-11.89
  0
LINE
  8
0
 10
-34.37
 11
-34.788
 20
-11.89
 21
-11.754
  0
LINE
  8
0
 10
-34.788
 11
-35.186
 20
-11.754
 21
-11.567
  0
LINE
  8
0
 10
-35.186
 11
-35.557
 20
-11.567
 21
-11.332
  0
LINE
  8
0
 10
-35.557
 11
-35.896
 20
-11.332
 21
-11.051
  0
LINE
  8
0
 10
-35.896
 11
-36.197
 20
-11.051
 21
-10.731
  0
LINE
  8
0
 10
-36.197
 11
-36.455
 20
-10.731
 21
-10.375
  0
LINE
  8
0
 10
-36.455
 11
-36.667
 20
-10.375
 21
-9.99
  0
LINE
  8
0
 10
-36.667
 11
-36.829
 20
-9.99
 21
-9.582
  0
LINE
  8
0
 10
-36.829
 11
-36.938
 20
-9.582
 21
-9.156
  0
LINE
  8
0
 10
-36.938
 11
-36.993
 20
-9.156
 21
-8.72
  0
LINE
  8
0
 10
-48
 11
-48
 20
-56.5
 21
39.5
  0
LINE
  8
0
 10
-48
 11
48
 20
39.5
 21
39.5
  0
LINE
  8
0
 10
48
 11
48
 20
39.5
 21
-56.5
  0
LINE
  8
0
 10
48
 11
-48
 20
-56.5
 21
-56.5
  0
LINE
  8
0
 10
-36
 11
-35.427
 20
0
 21
1.763
  0
LINE
  8
0
 10
-35.427
 11
-33.927
 20
1.763
 21
2.853
  0
LINE
  8
0
 10
-33.927
 11
-32.073
 20
2.853
 21
2.853
  0
LINE
  8
0
 10
-32.073
 11
-30.573
 20
2.853
 21
1.763
  0
LINE
  8
0
 10
-30.573
 11
-30
 20
1.763
 21
0
  0
LINE
  8
0
 10
-30
 11
-30.573
 20
0
 21
-1.763
  0
LINE
  8
0
 10
-30.573
 11
-32.073
 20
-1.763
 21
-2.853
  0
LINE
  8
0
 10
-32.073
 11
-33.927
 20
-2.853
 21
-2.853
  0
LINE
  8
0
 10
-33.927
 11
-35.427
 20
-2.853
 21
-1.763
  0
LINE
  8
0
 10
-35.427
 11
-36
 20
-1.763
 21
0
  0
LINE
  8
0
 10
-34.978
 11
-34.965
 20
-20.08
 21
-19.64
  0
LINE
  8
0
 10
-34.965
 11
-34.898
 20
-19.64
 21
-19.206
  0
LINE
  8
0
 10
-34.898
 11
-34.777
 20
-19.206
 21
-18.784
  0
LINE
  8
0
 10
-34.777
 11
-34.604
 20
-18.784
 21
-18.38
  0
LINE
  8
0
 10
-34.604
 11
-34.381
 20
-18.38
 21
-18
  0
LINE
  8
0
 10
-34.381
 11
-34.113
 20
-18
 21
-17.652
  0
LINE
  8
0
 10
-34.113
 11
-33.803
 20
-17.652
 21
-17.34
  0
LINE
  8
0
 10
-33.803
 11
-33.457
 20
-17.34
 21
-17.07
  0
LINE
  8
0
 10
-33.457
 11
-33.08
 20
-17.07
 21
-16.845
  0
LINE
  8
0
 10
-33.08
 11
-32.677
 20
-16.845
 21
-16.669
  0
LINE
  8
0
 10
-32.677
 11
-32.255
 20
-16.669
 21
-16.545
  0
LINE
  8
0
 10
-32.255
 11
-31.821
 20
-16.545
 21
-16.474
  0
LINE
  8
0
 10
-31.821
 11
-31.382
 20
-16.474
 21
-16.459
  0
LINE
  8
0
 10
-31.382
 11
-30.944
 20
-16.459
 21
-16.499
  0
LINE
  8
0
 10
-30.944
 11
-30.515
 20
-16.499
 21
-16.593
  0
LINE
  8
0
 10
-30.515
 11
-30.101
 20
-16.593
 21
-16.741
  0
LINE
  8
0
 10
-30.101
 11
-29.709
 20
-16.741
 21
-16.939
  0
LINE
  8
0
 10
-29.709
 11
-29.344
 20
-16.939
 21
-17.185
  0
LINE
  8
0
 10
-29.344
 11
-29.013
 20
-17.185
 21
-17.474
  0
LINE
  8
0
 10
-29.013
 11
-28.722
 20
-17.474
 21
-17.803
  0
LINE
  8
0
 10
-28.722
 11
-28.473
 20
-17.803
 21
-18.166
  0
LINE
  8
0
 10
-28.473
 11
-28.272
 20
-18.166
 21
-18.556
  0
LINE
  8
0
 10
-28.272
 11
-28.122
 20
-18.556
 21
-18.969
  0
LINE
  8
0
 10
-28.122
 11
-28.025
 20
-18.969
 21
-19.398
  0
LINE
  8
0
 10
-28.025
 11
-27.982
 20
-19.398
 21
-19.836
  0
LINE
  8
0
 10
-27.982
 11
-27.994
 20
-19.836
 21
-20.275
  0
LINE
  8
0
 10
-27.994
 11
-28.061
 20
-20.275
 21
-20.709
  0
LINE
  8
0
 10
-28.061
 11
-28.183
 20
-20.709
 21
-21.132
  0
LINE
  8
0
 10
-28.183
 11
-28.356
 20
-21.132
 21
-21.536
  0
LINE
  8
0
 10
-28.356
 11
-28.578
 20
-21.536
 21
-21.915
  0
LINE
  8
0
 10
-28.578
 11
-28.846
 20
-21.915
 21
-22.263
  0
LINE
  8
0
 10
-28.846
 11
-29.156
 20
-22.263
 21
-22.575
  0
LINE
  8
0
 10
-29.156
 11
-29.502
 20
-22.575
 21
-22.846
  0
LINE
  8
0
 10
-29.502
 11
-29.88
 20
-22.846
 21
-23.071
  0
LINE
  8
0
 10
-29.88
 11
-30.283
 20
-23.071
 21
-23.247
  0
LINE
  8
0
 10
-30.283
 11
-30.704
 20
-23.247
 21
-23.371
  0
LINE
  8
0
 10
-30.704
 11
-31.138
 20
-23.371
 21
-23.441
  0
LINE
  8
0
 10
-31.138
 11
-31.577
 20
-23.441
 21
-23.456
  0
LINE
  8
0
 10
-31.577
 11
-32.015
 20
-23.456
 21
-23.416
  0
LINE
  8
0
 10
-32.015
 11
-32.444
 20
-23.416
 21
-23.322
  0
LINE
  8
0
 10
-32.444
 11
-32.858
 20
-23.322
 21
-23.175
  0
LINE
  8
0
 10
-32.858
 11
-33.251
 20
-23.175
 21
-22.976
  0
LINE
  8
0
 10
-33.251
 11
-33.615
 20
-22.976
 21
-22.731
  0
LINE
  8
0
 10
-33.615
 11
-33.946
 20
-22.731
 21
-22.441
  0
LINE
  8
0
 10
-33.946
 11
-34.238
 20
-22.441
 21
-22.112
  0
LINE
  8
0
 10
-34.238
 11
-34.486
 20
-22.112
 21
-21.75
  0
LINE
  8
0
 10
-34.486
 11
-34.687
 20
-21.75
 21
-21.359
  0
LINE
  8
0
 10
-34.687
 11
-34.837
 20
-21.359
 21
-20.946
  0
LINE
  8
0
 10
-34.837
 11
-34.935
 20
-20.946
 21
-20.517
  0
LINE
  8
0
 10
-34.935
 11
-34.978
 20
-20.517
 21
-20.08
  0
LINE
  8
0
 10
-30.938
 11
-30.891
 20
10.874
 21
11.311
  0
LINE
  8
0
 10
-30.891
 11
-30.789
 20
11.311
 21
11.738
  0
LINE
  8
0
 10
-30.789
 11
-30.634
 20
11.738
 21
12.15
  0
LINE
  8
0
 10
-30.634
 11
-30.429
 20
12.15
 21
12.538
  0
LINE
  8
0
 10
-30.429
 11
-30.177
 20
12.538
 21
12.898
  0
LINE
  8
0
 10
-30.177
 11
-29.882
 20
12.898
 21
13.224
  0
LINE
  8
0
 10
-29.882
 11
-29.548
 20
13.224
 21
13.51
  0
LINE
  8
0
 10
-29.548
 11
-29.181
 20
13.51
 21
13.752
  0
LINE
  8
0
 10
-29.181
 11
-28.787
 20
13.752
 21
13.946
  0
LINE
  8
0
 10
-28.787
 11
-28.371
 20
13.946
 21
14.089
  0
LINE
  8
0
 10
-28.371
 11
-27.941
 20
14.089
 21
14.179
  0
LINE
  8
0
 10
-27.941
 11
-27.503
 20
14.179
 21
14.214
  0
LINE
  8
0
 10
-27.503
 11
-27.064
 20
14.214
 21
14.194
  0
LINE
  8
0
 10
-27.064
 11
-26.63
 20
14.194
 21
14.12
  0
LINE
  8
0
 10
-26.63
 11
-26.21
 20
14.12
 21
13.991
  0
LINE
  8
0
 10
-26.21
 11
-25.809
 20
13.991
 21
13.811
  0
LINE
  8
0
 10
-25.809
 11
-25.434
 20
13.811
 21
13.582
  0
LINE
  8
0
 10
-25.434
 11
-25.091
 20
13.582
 21
13.308
  0
LINE
  8
0
 10
-25.091
 11
-24.784
 20
13.308
 21
12.993
  0
LINE
  8
0
 10
-24.784
 11
-24.52
 20
12.993
 21
12.641
  0
LINE
  8
0
 10
-24.52
 11
-24.301
 20
12.641
 21
12.26
  0
LINE
  8
0
 10
-24.301
 11
-24.132
 20
12.26
 21
11.854
  0
LINE
  8
0
 10
-24.132
 11
-24.016
 20
11.854
 21
11.431
  0
LINE
  8
0
 10
-24.016
 11
-23.953
 20
11.431
 21
10.996
  0
LINE
  8
0
 10
-23.953
 11
-23.945
 20
10.996
 21
10.556
  0
LINE
  8
0
 10
-23.945
 11
-23.993
 20
10.556
 21
10.119
  0
LINE
  8
0
 10
-23.993
 11
-24.095
 20
10.119
 21
9.692
  0
LINE
  8
0
 10
-24.095
 11
-24.249
 20
9.692
 21
9.28
  0
LINE
  8
0
 10
-24.249
 11
-24.454
 20
9.28
 21
8.891
  0
LINE
  8
0
 10
-24.454
 11
-24.706
 20
8.891
 21
8.531
  0
LINE
  8
0
 10
-24.706
 11
-25.002
 20
8.531
 21
8.206
  0
LINE
  8
0
 10
-25.002
 11
-25.335
 20
8.206
 21
7.92
  0
LINE
  8
0
 10
-25.335
 11
-25.702
 20
7.92
 21
7.678
  0
LINE
  8
0
 10
-25.702
 11
-26.097
 20
7.678
 21
7.484
  0
LINE
  8
0
 10
-26.097
 11
-26.512
 20
7.484
 21
7.34
  0
LINE
  8
0
 10
-26.512
 11
-26.942
 20
7.34
 21
7.251
  0
LINE
  8
0
 10
-26.942
 11
-27.381
 20
7.251
 21
7.215
  0
LINE
  8
0
 10
-27.381
 11
-27.82
 20
7.215
 21
7.235
  0
LINE
  8
0
 10
-27.82
 11
-28.253
 20
7.235
 21
7.31
  0
LINE
  8
0
 10
-28.253
 11
-28.673
 20
7.31
 21
7.439
  0
LINE
  8
0
 10
-28.673
 11
-29.074
 20
7.439
 21
7.619
  0
LINE
  8
0
 10
-29.074
 11
-29.449
 20
7.619
 21
7.848
  0
LINE
  8
0
 10
-29.449
 11
-29.793
 20
7.848
 21
8.122
  0
LINE
  8
0
 10
-29.793
 11
-30.099
 20
8.122
 21
8.437
  0
LINE
  8
0
 10
-30.099
 11
-30.364
 20
8.437
 21
8.788
  0
LINE
  8
0
 10
-30.364
 11
-30.582
 20
8.788
 21
9.17
  0
LINE
  8
0
 10
-30.582
 11
-30.751
 20
9.17
 21
9.575
  0
LINE
  8
0
 10
-30.751
 11
-30.868
 20
9.575
 21
9.999
  0
LINE
  8
0
 10
-30.868
 11
-30.93
 20
9.999
 21
10.434
  0
LINE
  8
0
 10
-30.93
 11
-30.938
 20
10.434
 21
10.874
  0
LINE
  8
0
 10
-24.6
 11
-24.406
 20
0
 21
3.083
  0
LINE
  8
0
 10
-24.406
 11
-23.827
 20
3.083
 21
6.118
  0
LINE
  8
0
 10
-23.827
 11
-22.873
 20
6.118
 21
9.056
  0
LINE
  8
0
 10
-22.873
 11
-21.557
 20
9.056
 21
11.851
  0
LINE
  8
0
 10
-21.557
 11
-19.902
 20
11.851
 21
14.46
  0
LINE
  8
0
 10
-19.902
 11
-17.933
 20
14.46
 21
16.84
  0
LINE
  8
0
 10
-17.933
 11
-15.681
 20
16.84
 21
18.955
  0
LINE
  8
0
 10
-15.681
 11
-13.181
 20
18.955
 21
20.77
  0
LINE
  8
0
 10
-13.181
 11
-10.474
 20
20.77
 21
22.259
  0
LINE
  8
0
 10
-10.474
 11
-7.602
 20
22.259
 21
23.396
  0
LINE
  8
0
 10
-7.602
 11
-4.61
 20
23.396
 21
24.164
  0
LINE
  8
0
 10
-4.61
 11
-1.545
 20
24.164
 21
24.551
  0
LINE
  8
0
 10
-1.545
 11
1.545
 20
24.551
 21
24.551
  0
LINE
  8
0
 10
1.545
 11
4.61
 20
24.551
 21
24.164
  0
LINE
  8
0
 10
4.61
 11
7.602
 20
24.164
 21
23.396
  0
LINE
  8
0
 10
7.602
 11
10.474
 20
23.396
 21
22.259
  0
LINE
  8
0
 10
10.474
 11
13.181
 20
22.259
 21
20.77
  0
LINE
  8
0
 10
13.181
 11
15.681
 20
20.77
 21
18.955
  0
LINE
  8
0
 10
15.681
 11
17.933
 20
18.955
 21
16.84
  0
LINE
  8
0
 10
17.933
 11
19.902
 20
16.84
 21
14.46
  0
LINE
  8
0
 10
19.902
 11
21.557
 20
14.46
 21
11.851
  0
LINE
  8
0
 10
21.557
 11
22.873
 20
11.851
 21
9.056
  0
LINE
  8
0
 10
22.873
 11
23.827
 20
9.056
 21
6.118
  0
LINE
  8
0
 10
23.827
 11
24.406
 20
6.118
 21
3.083
  0
LINE
  8
0
 10
24.406
 11
24.6
 20
3.083
 21
0
  0
LINE
  8
0
 10
24.6
 11
24.406
 20
0
 21
-3.083
  0
LINE
  8
0
 10
24.406
 11
23.827
 20
-3.083
 21
-6.118
  0
LINE
  8
0
 10
23.827
 11
22.873
 20
-6.118
 21
-9.056
  0
LINE
  8
0
 10
22.873
 11
21.557
 20
-9.056
 21
-11.851
  0
LINE
  8
0
 10
21.557
 11
19.902
 20
-11.851
 21
-14.46
  0
LINE
  8
0
 10
19.902
 11
17.933
 20
-14.46
 21
-16.84
  0
LINE
  8
0
 10
17.933
 11
15.681
 20
-16.84
 21
-18.955
  0
LINE
  8
0
 10
15.681
 11
13.181
 20
-18.955
 21
-20.77
  0
LINE
  8
0
 10
13.181
 11
10.474
 20
-20.77
 21
-22.259
  0
LINE
  8
0
 10
10.474
 11
7.602
 20
-22.259
 21
-23.396
  0
LINE
  8
0
 10
7.602
 11
4.61
 20
-23.396
 21
-24.164
  0
LINE
  8
0
 10
4.61
 11
1.545
 20
-24.164
 21
-24.551
  0
LINE
  8
0
 10
1.545
 11
-1.545
 20
-24.551
 21
-24.551
  0
LINE
  8
0
 10
-1.545
 11
-4.61
 20
-24.551
 21
-24.164
  0
LINE
  8
0
 10
-4.61
 11
-7.602
 20
-24.164
 21
-23.396
  0
LINE
  8
0
 10
-7.602
 11
-10.474
 20
-23.396
 21
-22.259
  0
LINE
  8
0
 10
-10.474
 11
-13.181
 20
-22.259
 21
-20.77
  0
LINE
  8
0
 10
-13.181
 11
-15.681
 20
-20.77
 21
-18.955
  0
LINE
  8
0
 10
-15.681
 11
-17.933
 20
-18.955
 21
-16.84
  0
LINE
  8
0
 10
-17.933
 11
-19.902
 20
-16.84
 21
-14.46
  0
LINE
  8
0
 10
-19.902
 11
-21.557
 20
-14.46
 21
-11.851
  0
LINE
  8
0
 10
-21.557
 11
-22.873
 20
-11.851
 21
-9.056
  0
LINE
  8
0
 10
-22.873
 11
-23.827
 20
-9.056
 21
-6.118
  0
LINE
  8
0
 10
-23.827
 11
-24.406
 20
-6.118
 21
-3.083
  0
LINE
  8
0
 10
-24.406
 11
-24.6
 20
-3.083
 21
0
  0
LINE
  8
0
 10
-17.652
 11
-17.598
 20
-38.654
 21
-38.217
  0
LINE
  8
0
 10
-17.598
 11
-17.49
 20
-38.217
 21
-37.791
  0
LINE
  8
0
 10
-17.49
 11
-17.33
 20
-37.791
 21
-37.382
  0
LINE
  8
0
 10
-17.33
 11
-17.119
 20
-37.382
 21
-36.996
  0
LINE
  8
0
 10
-17.119
 11
-16.862
 20
-36.996
 21
-36.64
  0
LINE
  8
0
 10
-16.862
 11
-16.563
 20
-36.64
 21
-36.318
  0
LINE
  8
0
 10
-16.563
 11
-16.225
 20
-36.318
 21
-36.037
  0
LINE
  8
0
 10
-16.225
 11
-15.855
 20
-36.037
 21
-35.8
  0
LINE
  8
0
 10
-15.855
 11
-15.457
 20
-35.8
 21
-35.612
  0
LINE
  8
0
 10
-15.457
 11
-15.04
 20
-35.612
 21
-35.474
  0
LINE
  8
0
 10
-15.04
 11
-14.608
 20
-35.474
 21
-35.39
  0
LINE
  8
0
 10
-14.608
 11
-14.17
 20
-35.39
 21
-35.361
  0
LINE
  8
0
 10
-14.17
 11
-13.731
 20
-35.361
 21
-35.387
  0
LINE
  8
0
 10
-13.731
 11
-13.299
 20
-35.387
 21
-35.468
  0
LINE
  8
0
 10
-13.299
 11
-12.881
 20
-35.468
 21
-35.603
  0
LINE
  8
0
 10
-12.881
 11
-12.482
 20
-35.603
 21
-35.788
  0
LINE
  8
0
 10
-12.482
 11
-12.11
 20
-35.788
 21
-36.023
  0
LINE
  8
0
 10
-12.11
 11
-11.771
 20
-36.023
 21
-36.302
  0
LINE
  8
0
 10
-11.771
 11
-11.469
 20
-36.302
 21
-36.621
  0
LINE
  8
0
 10
-11.469
 11
-11.209
 20
-36.621
 21
-36.976
  0
LINE
  8
0
 10
-11.209
 11
-10.996
 20
-36.976
 21
-37.36
  0
LINE
  8
0
 10
-10.996
 11
-10.833
 20
-37.36
 21
-37.768
  0
LINE
  8
0
 10
-10.833
 11
-10.722
 20
-37.768
 21
-38.193
  0
LINE
  8
0
 10
-10.722
 11
-10.665
 20
-38.193
 21
-38.629
  0
LINE
  8
0
 10
-10.665
 11
-10.664
 20
-38.629
 21
-39.069
  0
LINE
  8
0
 10
-10.664
 11
-10.717
 20
-39.069
 21
-39.505
  0
LINE
  8
0
 10
-10.717
 11
-10.825
 20
-39.505
 21
-39.931
  0
LINE
  8
0
 10
-10.825
 11
-10.986
 20
-39.931
 21
-40.34
  0
LINE
  8
0
 10
-10.986
 11
-11.196
 20
-40.34
 21
-40.726
  0
LINE
  8
0
 10
-11.196
 11
-11.453
 20
-40.726
 21
-41.083
  0
LINE
  8
0
 10
-11.453
 11
-11.753
 20
-41.083
 21
-41.404
  0
LINE
  8
0
 10
-11.753
 11
-12.091
 20
-41.404
 21
-41.686
  0
LINE
  8
0
 10
-12.091
 11
-12.461
 20
-41.686
 21
-41.922
  0
LINE
  8
0
 10
-12.461
 11
-12.858
 20
-41.922
 21
-42.111
  0
LINE
  8
0
 10
-12.858
 11
-13.275
 20
-42.111
 21
-42.248
  0
LINE
  8
0
 10
-13.275
 11
-13.707
 20
-42.248
 21
-42.332
  0
LINE
  8
0
 10
-13.707
 11
-14.145
 20
-42.332
 21
-42.361
  0
LINE
  8
0
 10
-14.145
 11
-14.584
 20
-42.361
 21
-42.335
  0
LINE
  8
0
 10
-14.584
 11
-15.016
 20
-42.335
 21
-42.254
  0
LINE
  8
0
 10
-15.016
 11
-15.435
 20
-42.254
 21
-42.12
  0
LINE
  8
0
 10
-15.435
 11
-15.833
 20
-42.12
 21
-41.934
  0
LINE
  8
0
 10
-15.833
 11
-16.205
 20
-41.934
 21
-41.7
  0
LINE
  8
0
 10
-16.205
 11
-16.545
 20
-41.7
 21
-41.421
  0
LINE
  8
0
 10
-16.545
 11
-16.847
 20
-41.421
 21
-41.102
  0
LINE
  8
0
 10
-16.847
 11
-17.106
 20
-41.102
 21
-40.747
  0
LINE
  8
0
 10
-17.106
 11
-17.319
 20
-40.747
 21
-40.363
  0
LINE
  8
0
 10
-17.319
 11
-17.483
 20
-40.363
 21
-39.954
  0
LINE
  8
0
 10
-17.483
 11
-17.593
 20
-39.954
 21
-39.529
  0
LINE
  8
0
 10
-17.593
 11
-17.65
 20
-39.529
 21
-39.093
  0
LINE
  8
0
 10
-17.65
 11
-17.652
 20
-39.093
 21
-38.654
  0
LINE
  8
0
 10
-14.023
 11
-14.014
 20
-29.884
 21
-29.482
  0
LINE
  8
0
 10
-14.014
 11
-13.955
 20
-29.482
 21
-29.085
  0
LINE
  8
0
 10
-13.955
 11
-13.847
 20
-29.085
 21
-28.698
  0
LINE
  8
0
 10
-13.847
 11
-13.692
 20
-28.698
 21
-28.327
  0
LINE
  8
0
 10
-13.692
 11
-13.491
 20
-28.327
 21
-27.979
  0
LINE
  8
0
 10
-13.491
 11
-13.248
 20
-27.979
 21
-27.659
  0
LINE
  8
0
 10
-13.248
 11
-12.967
 20
-27.659
 21
-27.372
  0
LINE
  8
0
 10
-12.967
 11
-12.652
 20
-27.372
 21
-27.122
  0
LINE
  8
0
 10
-12.652
 11
-12.308
 20
-27.122
 21
-26.914
  0
LINE
  8
0
 10
-12.308
 11
-11.941
 20
-26.914
 21
-26.751
  0
LINE
  8
0
 10
-11.941
 11
-11.556
 20
-26.751
 21
-26.635
  0
LINE
  8
0
 10
-11.556
 11
-11.16
 20
-26.635
 21
-26.568
  0
LINE
  8
0
 10
-11.16
 11
-10.758
 20
-26.568
 21
-26.551
  0
LINE
  8
0
 10
-10.758
 11
-10.358
 20
-26.551
 21
-26.584
  0
LINE
  8
0
 10
-10.358
 11
-9.965
 20
-26.584
 21
-26.668
  0
LINE
  8
0
 10
-9.965
 11
-9.585
 20
-26.668
 21
-26.8
  0
LINE
  8
0
 10
-9.585
 11
-9.225
 20
-26.8
 21
-26.979
  0
LINE
  8
0
 10
-9.225
 11
-8.891
 20
-26.979
 21
-27.201
  0
LINE
  8
0
 10
-8.891
 11
-8.586
 20
-27.201
 21
-27.464
  0
LINE
  8
0
 10
-8.586
 11
-8.317
 20
-27.464
 21
-27.762
  0
LINE
  8
0
 10
-8.317
 11
-8.088
 20
-27.762
 21
-28.092
  0
LINE
  8
0
 10
-8.088
 11
-7.902
 20
-28.092
 21
-28.448
  0
LINE
  8
0
 10
-7.902
 11
-7.762
 20
-28.448
 21
-28.825
  0
LINE
  8
0
 10
-7.762
 11
-7.67
 20
-28.825
 21
-29.216
  0
LINE
  8
0
 10
-7.67
 11
-7.628
 20
-29.216
 21
-29.616
  0
LINE
  8
0
 10
-7.628
 11
-7.637
 20
-29.616
 21
-30.018
  0
LINE
  8
0
 10
-7.637
 11
-7.695
 20
-30.018
 21
-30.415
  0
LINE
  8
0
 10
-7.695
 11
-7.803
 20
-30.415
 21
-30.802
  0
LINE
  8
0
 10
-7.803
 11
-7.959
 20
-30.802
 21
-31.173
  0
LINE
  8
0
 10
-7.959
 11
-8.16
 20
-31.173
 21
-31.521
  0
LINE
  8
0
 10
-8.16
 11
-8.403
 20
-31.521
 21
-31.841
  0
LINE
  8
0
 10
-8.403
 11
-8.684
 20
-31.841
 21
-32.128
  0
LINE
  8
0
 10
-8.684
 11
-8.999
 20
-32.128
 21
-32.378
  0
LINE
  8
0
 10
-8.999
 11
-9.343
 20
-32.378
 21
-32.586
  0
LINE
  8
0
 10
-9.343
 11
-9.71
 20
-32.586
 21
-32.749
  0
LINE
  8
0
 10
-9.71
 11
-10.095
 20
-32.749
 21
-32.865
  0
LINE
  8
0
 10
-10.095
 11
-10.491
 20
-32.865
 21
-32.932
  0
LINE
  8
0
 10
-10.491
 11
-10.892
 20
-32.932
 21
-32.949
  0
LINE
  8
0
 10
-10.892
 11
-11.293
 20
-32.949
 21
-32.916
  0
LINE
  8
0
 10
-11.293
 11
-11.686
 20
-32.916
 21
-32.832
  0
LINE
  8
0
 10
-11.686
 11
-12.065
 20
-32.832
 21
-32.7
  0
LINE
  8
0
 10
-12.065
 11
-12.425
 20
-32.7
 21
-32.521
  0
LINE
  8
0
 10
-12.425
 11
-12.76
 20
-32.521
 21
-32.299
  0
LINE
  8
0
 10
-12.76
 11
-13.064
 20
-32.299
 21
-32.036
  0
LINE
  8
0
 10
-13.064
 11
-13.333
 20
-32.036
 21
-31.738
  0
LINE
  8
0
 10
-13.333
 11
-13.562
 20
-31.738
 21
-31.408
  0
LINE
  8
0
 10
-13.562
 11
-13.749
 20
-31.408
 21
-31.052
  0
LINE
  8
0
 10
-13.749
 11
-13.889
 20
-31.052
 21
-30.675
  0
LINE
  8
0
 10
-13.889
 11
-13.981
 20
-30.675
 21
-30.284
  0
LINE
  8
0
 10
-13.981
 11
-14.023
 20
-30.284
 21
-29.884
  0
LINE
  8
0
 10
-3
 11
-2.976
 20
-36
 21
-35.624
  0
LINE
  8
0
 10
-2.976
 11
-2.906
 20
-35.624
 21
-35.254
  0
LINE
  8
0
 10
-2.906
 11
-2.789
 20
-35.254
 21
-34.896
  0
LINE
  8
0
 10
-2.789
 11
-2.629
 20
-34.896
 21
-34.555
  0
LINE
  8
0
 10
-2.629
 11
-2.427
 20
-34.555
 21
-34.237
  0
LINE
  8
0
 10
-2.427
 11
-2.187
 20
-34.237
 21
-33.946
  0
LINE
  8
0
 10
-2.187
 11
-1.912
 20
-33.946
 21
-33.688
  0
LINE
  8
0
 10
-1.912
 11
-1.607
 20
-33.688
 21
-33.467
  0
LINE
  8
0
 10
-1.607
 11
-1.277
 20
-33.467
 21
-33.286
  0
LINE
  8
0
 10
-1.277
 11
-0.927
 20
-33.286
 21
-33.147
  0
LINE
  8
0
 10
-0.927
 11
-0.562
 20
-33.147
 21
-33.053
  0
LINE
  8
0
 10
-0.562
 11
-0.188
 20
-33.053
 21
-33.006
  0
LINE
  8
0
 10
-0.188
 11
0.188
 20
-33.006
 21
-33.006
  0
LINE
  8
0
 10
0.188
 11
0.562
 20
-33.006
 21
-33.053
  0
LINE
  8
0
 10
0.562
 11
0.927
 20
-33.053
 21
-33.147
  0
LINE
  8
0
 10
0.927
 11
1.277
 20
-33.147
 21
-33.286
  0
LINE
  8
0
 10
1.277
 11
1.607
 20
-33.286
 21
-33.467
  0
LINE
  8
0
 10
1.607
 11
1.912
 20
-33.467
 21
-33.688
  0
LINE
  8
0
 10
1.912
 11
2.187
 20
-33.688
 21
-33.946
  0
LINE
  8
0
 10
2.187
 11
2.427
 20
-33.946
 21
-34.237
  0
LINE
  8
0
 10
2.427
 11
2.629
 20
-34.237
 21
-34.555
  0
LINE
  8
0
 10
2.629
 11
2.789
 20
-34.555
 21
-34.896
  0
LINE
  8
0
 10
2.789
 11
2.906
 20
-34.896
 21
-35.254
  0
LINE
  8
0
 10
2.906
 11
2.976
 20
-35.254
 21
-35.624
  0
LINE
  8
0
 10
2.976
 11
3
 20
-35.624
 21
-36
  0
LINE
  8
0
 10
3
 11
2.976
 20
-36
 21
-36.376
  0
LINE
  8
0
 10
2.976
 11
2.906
 20
-36.376
 21
-36.746
  0
LINE
  8
0
 10
2.906
 11
2.789
 20
-36.746
 21
-37.104
  0
LINE
  8
0
 10
2.789
 11
2.629
 20
-37.104
 21
-37.445
  0
LINE
  8
0
 10
2.629
 11
2.427
 20
-37.445
 21
-37.763
  0
LINE
  8
0
 10
2.427
 11
2.187
 20
-37.763
 21
-38.054
  0
LINE
  8
0
 10
2.187
 11
1.912
 20
-38.054
 21
-38.312
  0
LINE
  8
0
 10
1.912
 11
1.607
 20
-38.312
 21
-38.533
  0
LINE
  8
0
 10
1.607
 11
1.277
 20
-38.533
 21
-38.714
  0
LINE
  8
0
 10
1.277
 11
0.927
 20
-38.714
 21
-38.853
  0
LINE
  8
0
 10
0.927
 11
0.562
 20
-38.853
 21
-38.947
  0
LINE
  8
0
 10
0.562
 11
0.188
 20
-38.947
 21
-38.994
  0
LINE
  8
0
 10
0.188
 11
-0.188
 20
-38.994
 21
-38.994
  0
LINE
  8
0
 10
-0.188
 11
-0.562
 20
-38.994
 21
-38.947
  0
LINE
  8
0
 10
-0.562
 11
-0.927
 20
-38.947
 21
-38.853
  0
LINE
  8
0
 10
-0.927
 11
-1.277
 20
-38.853
 21
-38.714
  0
LINE
  8
0
 10
-1.277
 11
-1.607
 20
-38.714
 21
-38.533
  0
LINE
  8
0
 10
-1.607
 11
-1.912
 20
-38.533
 21
-38.312
  0
LINE
  8
0
 10
-1.912
 11
-2.187
 20
-38.312
 21
-38.054
  0
LINE
  8
0
 10
-2.187
 11
-2.427
 20
-38.054
 21
-37.763
  0
LINE
  8
0
 10
-2.427
 11
-2.629
 20
-37.763
 21
-37.445
  0
LINE
  8
0
 10
-2.629
 11
-2.789
 20
-37.445
 21
-37.104
  0
LINE
  8
0
 10
-2.789
 11
-2.906
 20
-37.104
 21
-36.746
  0
LINE
  8
0
 10
-2.906
 11
-2.976
 20
-36.746
 21
-36.376
  0
LINE
  8
0
 10
-2.976
 11
-3
 20
-36.376
 21
-36
  0
LINE
  8
0
 10
7.628
 11
7.67
 20
-29.616
 21
-29.216
  0
LINE
  8
0
 10
7.67
 11
7.762
 20
-29.216
 21
-28.825
  0
LINE
  8
0
 10
7.762
 11
7.902
 20
-28.825
 21
-28.448
  0
LINE
  8
0
 10
7.902
 11
8.088
 20
-28.448
 21
-28.092
  0
LINE
  8
0
 10
8.088
 11
8.317
 20
-28.092
 21
-27.762
  0
LINE
  8
0
 10
8.317
 11
8.586
 20
-27.762
 21
-27.464
  0
LINE
  8
0
 10
8.586
 11
8.891
 20
-27.464
 21
-27.201
  0
LINE
  8
0
 10
8.891
 11
9.225
 20
-27.201
 21
-26.979
  0
LINE
  8
0
 10
9.225
 11
9.585
 20
-26.979
 21
-26.8
  0
LINE
  8
0
 10
9.585
 11
9.965
 20
-26.8
 21
-26.668
  0
LINE
  8
0
 10
9.965
 11
10.358
 20
-26.668
 21
-26.584
  0
LINE
  8
0
 10
10.358
 11
10.758
 20
-26.584
 21
-26.551
  0
LINE
  8
0
 10
10.758
 11
11.16
 20
-26.551
 21
-26.568
  0
LINE
  8
0
 10
11.16
 11
11.556
 20
-26.568
 21
-26.635
  0
LINE
  8
0
 10
11.556
 11
11.941
 20
-26.635
 21
-26.751
  0
LINE
  8
0
 10
11.941
 11
12.308
 20
-26.751
 21
-26.914
  0
LINE
  8
0
 10
12.308
 11
12.652
 20
-26.914
 21
-27.122
  0
LINE
  8
0
 10
12.652
 11
12.967
 20
-27.122
 21
-27.372
  0
LINE
  8
0
 10
12.967
 11
13.248
 20
-27.372
 21
-27.659
  0
LINE
  8
0
 10
13.248
 11
13.491
 20
-27.659
 21
-27.979
  0
LINE
  8
0
 10
13.491
 11
13.692
 20
-27.979
 21
-28.327
  0
LINE
  8
0
 10
13.692
 11
13.847
 20
-28.327
 21
-28.698
  0
LINE
  8
0
 10
13.847
 11
13.955
 20
-28.698
 21
-29.085
  0
LINE
  8
0
 10
13.955
 11
14.014
 20
-29.085
 21
-29.482
  0
LINE
  8
0
 10
14.014
 11
14.023
 20
-29.482
 21
-29.884
  0
LINE
  8
0
 10
14.023
 11
13.981
 20
-29.884
 21
-30.284
  0
LINE
  8
0
 10
13.981
 11
13.889
 20
-30.284
 21
-30.675
  0
LINE
  8
0
 10
13.889
 11
13.749
 20
-30.675
 21
-31.052
  0
LINE
  8
0
 10
13.749
 11
13.562
 20
-31.052
 21
-31.408
  0
LINE
  8
0
 10
13.562
 11
13.333
 20
-31.408
 21
-31.738
  0
LINE
  8
0
 10
13.333
 11
13.064
 20
-31.738
 21
-32.036
  0
LINE
  8
0
 10
13.064
 11
12.76
 20
-32.036
 21
-32.299
  0
LINE
  8
0
 10
12.76
 11
12.425
 20
-32.299
 21
-32.521
  0
LINE
  8
0
 10
12.425
 11
12.065
 20
-32.521
 21
-32.7
  0
LINE
  8
0
 10
12.065
 11
11.686
 20
-32.7
 21
-32.832
  0
LINE
  8
0
 10
11.686
 11
11.293
 20
-32.832
 21
-32.916
  0
LINE
  8
0
 10
11.293
 11
10.892
 20
-32.916
 21
-32.949
  0
LINE
  8
0
 10
10.892
 11
10.491
 20
-32.949
 21
-32.932
  0
LINE
  8
0
 10
10.491
 11
10.095
 20
-32.932
 21
-32.865
  0
LINE
  8
0
 10
10.095
 11
9.71
 20
-32.865
 21
-32.749
  0
LINE
  8
0
 10
9.71
 11
9.343
 20
-32.749
 21
-32.586
  0
LINE
  8
0
 10
9.343
 11
8.999
 20
-32.586
 21
-32.378
  0
LINE
  8
0
 10
8.999
 11
8.684
 20
-32.378
 21
-32.128
  0
LINE
  8
0
 10
8.684
 11
8.403
 20
-32.128
 21
-31.841
  0
LINE
  8
0
 10
8.403
 11
8.16
 20
-31.841
 21
-31.521
  0
LINE
  8
0
 10
8.16
 11
7.959
 20
-31.521
 21
-31.173
  0
LINE
  8
0
 10
7.959
 11
7.803
 20
-31.173
 21
-30.802
  0
LINE
  8
0
 10
7.803
 11
7.695
 20
-30.802
 21
-30.415
  0
LINE
  8
0
 10
7.695
 11
7.637
 20
-30.415
 21
-30.018
  0
LINE
  8
0
 10
7.637
 11
7.628
 20
-30.018
 21
-29.616
  0
LINE
  8
0
 10
10.664
 11
10.665
 20
-39.069
 21
-38.629
  0
LINE
  8
0
 10
10.665
 11
10.722
 20
-38.629
 21
-38.193
  0
LINE
  8
0
 10
10.722
 11
10.833
 20
-38.193
 21
-37.768
  0
LINE
  8
0
 10
10.833
 11
10.996
 20
-37.768
 21
-37.36
  0
LINE
  8
0
 10
10.996
 11
11.209
 20
-37.36
 21
-36.976
  0
LINE
  8
0
 10
11.209
 11
11.469
 20
-36.976
 21
-36.621
  0
LINE
  8
0
 10
11.469
 11
11.771
 20
-36.621
 21
-36.302
  0
LINE
  8
0
 10
11.771
 11
12.11
 20
-36.302
 21
-36.023
  0
LINE
  8
0
 10
12.11
 11
12.482
 20
-36.023
 21
-35.788
  0
LINE
  8
0
 10
12.482
 11
12.881
 20
-35.788
 21
-35.603
  0
LINE
  8
0
 10
12.881
 11
13.299
 20
-35.603
 21
-35.468
  0
LINE
  8
0
 10
13.299
 11
13.731
 20
-35.468
 21
-35.387
  0
LINE
  8
0
 10
13.731
 11
14.17
 20
-35.387
 21
-35.361
  0
LINE
  8
0
 10
14.17
 11
14.608
 20
-35.361
 21
-35.39
  0
LINE
  8
0
 10
14.608
 11
15.04
 20
-35.39
 21
-35.474
  0
LINE
  8
0
 10
15.04
 11
15.457
 20
-35.474
 21
-35.612
  0
LINE
  8
0
 10
15.457
 11
15.855
 20
-35.612
 21
-35.8
  0
LINE
  8
0
 10
15.855
 11
16.225
 20
-35.8
 21
-36.037
  0
LINE
  8
0
 10
16.225
 11
16.563
 20
-36.037
 21
-36.318
  0
LINE
  8
0
 10
16.563
 11
16.862
 20
-36.318
 21
-36.64
  0
LINE
  8
0
 10
16.862
 11
17.119
 20
-36.64
 21
-36.996
  0
LINE
  8
0
 10
17.119
 11
17.33
 20
-36.996
 21
-37.382
  0
LINE
  8
0
 10
17.33
 11
17.49
 20
-37.382
 21
-37.791
  0
LINE
  8
0
 10
17.49
 11
17.598
 20
-37.791
 21
-38.217
  0
LINE
  8
0
 10
17.598
 11
17.652
 20
-38.217
 21
-38.654
  0
LINE
  8
0
 10
17.652
 11
17.65
 20
-38.654
 21
-39.093
  0
LINE
  8
0
 10
17.65
 11
17.593
 20
-39.093
 21
-39.529
  0
LINE
  8
0
 10
17.593
 11
17.483
 20
-39.529
 21
-39.954
  0
LINE
  8
0
 10
17.483
 11
17.319
 20
-39.954
 21
-40.363
  0
LINE
  8
0
 10
17.319
 11
17.106
 20
-40.363
 21
-40.747
  0
LINE
  8
0
 10
17.106
 11
16.847
 20
-40.747
 21
-41.102
  0
LINE
  8
0
 10
16.847
 11
16.545
 20
-41.102
 21
-41.421
  0
LINE
  8
0
 10
16.545
 11
16.205
 20
-41.421
 21
-41.7
  0
LINE
  8
0
 10
16.205
 11
15.833
 20
-41.7
 21
-41.934
  0
LINE
  8
0
 10
15.833
 11
15.435
 20
-41.934
 21
-42.12
  0
LINE
  8
0
 10
15.435
 11
15.016
 20
-42.12
 21
-42.254
  0
LINE
  8
0
 10
15.016
 11
14.584
 20
-42.254
 21
-42.335
  0
LINE
  8
0
 10
14.584
 11
14.145
 20
-42.335
 21
-42.361
  0
LINE
  8
0
 10
14.145
 11
13.707
 20
-42.361
 21
-42.332
  0
LINE
  8
0
 10
13.707
 11
13.275
 20
-42.332
 21
-42.248
  0
LINE
  8
0
 10
13.275
 11
12.858
 20
-42.248
 21
-42.111
  0
LINE
  8
0
 10
12.858
 11
12.461
 20
-42.111
 21
-41.922
  0
LINE
  8
0
 10
12.461
 11
12.091
 20
-41.922
 21
-41.686
  0
LINE
  8
0
 10
12.091
 11
11.753
 20
-41.686
 21
-41.404
  0
LINE
  8
0
 10
11.753
 11
11.453
 20
-41.404
 21
-41.083
  0
LINE
  8
0
 10
11.453
 11
11.196
 20
-41.083
 21
-40.726
  0
LINE
  8
0
 10
11.196
 11
10.986
 20
-40.726
 21
-40.34
  0
LINE
  8
0
 10
10.986
 11
10.825
 20
-40.34
 21
-39.931
  0
LINE
  8
0
 10
10.825
 11
10.717
 20
-39.931
 21
-39.505
  0
LINE
  8
0
 10
10.717
 11
10.664
 20
-39.505
 21
-39.069
  0
LINE
  8
0
 10
22
 11
22.573
 20
15
 21
16.763
  0
LINE
  8
0
 10
22.573
 11
24.073
 20
16.763
 21
17.853
  0
LINE
  8
0
 10
24.073
 11
25.927
 20
17.853
 21
17.853
  0
LINE
  8
0
 10
25.927
 11
27.427
 20
17.853
 21
16.763
  0
LINE
  8
0
 10
27.427
 11
28
 20
16.763
 21
15
  0
LINE
  8
0
 10
28
 11
27.427
 20
15
 21
13.237
  0
LINE
  8
0
 10
27.427
 11
25.927
 20
13.237
 21
12.147
  0
LINE
  8
0
 10
25.927
 11
24.073
 20
12.147
 21
12.147
  0
LINE
  8
0
 10
24.073
 11
22.573
 20
12.147
 21
13.237
  0
LINE
  8
0
 10
22.573
 11
22
 20
13.237
 21
15
  0
LINE
  8
0
 10
25.515
 11
25.561
 20
8.397
 21
8.834
  0
LINE
  8
0
 10
25.561
 11
25.661
 20
8.834
 21
9.262
  0
LINE
  8
0
 10
25.661
 11
25.814
 20
9.262
 21
9.674
  0
LINE
  8
0
 10
25.814
 11
26.018
 20
9.674
 21
10.063
  0
LINE
  8
0
 10
26.018
 11
26.269
 20
10.063
 21
10.424
  0
LINE
  8
0
 10
26.269
 11
26.563
 20
10.424
 21
10.751
  0
LINE
  8
0
 10
26.563
 11
26.896
 20
10.751
 21
11.038
  0
LINE
  8
0
 10
26.896
 11
27.262
 20
11.038
 21
11.281
  0
LINE
  8
0
 10
27.262
 11
27.656
 20
11.281
 21
11.477
  0
LINE
  8
0
 10
27.656
 11
28.071
 20
11.477
 21
11.621
  0
LINE
  8
0
 10
28.071
 11
28.501
 20
11.621
 21
11.712
  0
LINE
  8
0
 10
28.501
 11
28.939
 20
11.712
 21
11.749
  0
LINE
  8
0
 10
28.939
 11
29.378
 20
11.749
 21
11.731
  0
LINE
  8
0
 10
29.378
 11
29.811
 20
11.731
 21
11.658
  0
LINE
  8
0
 10
29.811
 11
30.232
 20
11.658
 21
11.53
  0
LINE
  8
0
 10
30.232
 11
30.633
 20
11.53
 21
11.352
  0
LINE
  8
0
 10
30.633
 11
31.009
 20
11.352
 21
11.124
  0
LINE
  8
0
 10
31.009
 11
31.354
 20
11.124
 21
10.851
  0
LINE
  8
0
 10
31.354
 11
31.661
 20
10.851
 21
10.537
  0
LINE
  8
0
 10
31.661
 11
31.927
 20
10.537
 21
10.187
  0
LINE
  8
0
 10
31.927
 11
32.147
 20
10.187
 21
9.806
  0
LINE
  8
0
 10
32.147
 11
32.317
 20
9.806
 21
9.401
  0
LINE
  8
0
 10
32.317
 11
32.435
 20
9.401
 21
8.978
  0
LINE
  8
0
 10
32.435
 11
32.5
 20
8.978
 21
8.543
  0
LINE
  8
0
 10
32.5
 11
32.509
 20
8.543
 21
8.103
  0
LINE
  8
0
 10
32.509
 11
32.463
 20
8.103
 21
7.666
  0
LINE
  8
0
 10
32.463
 11
32.362
 20
7.666
 21
7.238
  0
LINE
  8
0
 10
32.362
 11
32.209
 20
7.238
 21
6.826
  0
LINE
  8
0
 10
32.209
 11
32.006
 20
6.826
 21
6.437
  0
LINE
  8
0
 10
32.006
 11
31.755
 20
6.437
 21
6.076
  0
LINE
  8
0
 10
31.755
 11
31.461
 20
6.076
 21
5.749
  0
LINE
  8
0
 10
31.461
 11
31.128
 20
5.749
 21
5.462
  0
LINE
  8
0
 10
31.128
 11
30.762
 20
5.462
 21
5.219
  0
LINE
  8
0
 10
30.762
 11
30.368
 20
5.219
 21
5.023
  0
LINE
  8
0
 10
30.368
 11
29.953
 20
5.023
 21
4.879
  0
LINE
  8
0
 10
29.953
 11
29.523
 20
4.879
 21
4.788
  0
LINE
  8
0
 10
29.523
 11
29.085
 20
4.788
 21
4.751
  0
LINE
  8
0
 10
29.085
 11
28.646
 20
4.751
 21
4.769
  0
LINE
  8
0
 10
28.646
 11
28.213
 20
4.769
 21
4.842
  0
LINE
  8
0
 10
28.213
 11
27.792
 20
4.842
 21
4.97
  0
LINE
  8
0
 10
27.792
 11
27.39
 20
4.97
 21
5.148
  0
LINE
  8
0
 10
27.39
 11
27.014
 20
5.148
 21
5.376
  0
LINE
  8
0
 10
27.014
 11
26.67
 20
5.376
 21
5.649
  0
LINE
  8
0
 10
26.67
 11
26.362
 20
5.649
 21
5.963
  0
LINE
  8
0
 10
26.362
 11
26.097
 20
5.963
 21
6.313
  0
LINE
  8
0
 10
26.097
 11
25.877
 20
6.313
 21
6.694
  0
LINE
  8
0
 10
25.877
 11
25.707
 20
6.694
 21
7.099
  0
LINE
  8
0
 10
25.707
 11
25.588
 20
7.099
 21
7.522
  0
LINE
  8
0
 10
25.588
 11
25.524
 20
7.522
 21
7.957
  0
LINE
  8
0
 10
25.524
 11
25.515
 20
7.957
 21
8.397
  0
LINE
  8
0
 10
27.982
 11
28.025
 20
-19.836
 21
-19.398
  0
LINE
  8
0
 10
28.025
 11
28.122
 20
-19.398
 21
-18.969
  0
LINE
  8
0
 10
28.122
 11
28.272
 20
-18.969
 21
-18.556
  0
LINE
  8
0
 10
28.272
 11
28.473
 20
-18.556
 21
-18.166
  0
LINE
  8
0
 10
28.473
 11
28.722
 20
-18.166
 21
-17.803
  0
LINE
  8
0
 10
28.722
 11
29.013
 20
-17.803
 21
-17.474
  0
LINE
  8
0
 10
29.013
 11
29.344
 20
-17.474
 21
-17.185
  0
LINE
  8
0
 10
29.344
 11
29.709
 20
-17.185
 21
-16.939
  0
LINE
  8
0
 10
29.709
 11
30.101
 20
-16.939
 21
-16.741
  0
LINE
  8
0
 10
30.101
 11
30.515
 20
-16.741
 21
-16.593
  0
LINE
  8
0
 10
30.515
 11
30.944
 20
-16.593
 21
-16.499
  0
LINE
  8
0
 10
30.944
 11
31.382
 20
-16.499
 21
-16.459
  0
LINE
  8
0
 10
31.382
 11
31.821
 20
-16.459
 21
-16.474
  0
LINE
  8
0
 10
31.821
 11
32.255
 20
-16.474
 21
-16.545
  0
LINE
  8
0
 10
32.255
 11
32.677
 20
-16.545
 21
-16.669
  0
LINE
  8
0
 10
32.677
 11
33.08
 20
-16.669
 21
-16.845
  0
LINE
  8
0
 10
33.08
 11
33.457
 20
-16.845
 21
-17.07
  0
LINE
  8
0
 10
33.457
 11
33.803
 20
-17.07
 21
-17.34
  0
LINE
  8
0
 10
33.803
 11
34.113
 20
-17.34
 21
-17.652
  0
LINE
  8
0
 10
34.113
 11
34.381
 20
-17.652
 21
-18
  0
LINE
  8
0
 10
34.381
 11
34.604
 20
-18
 21
-18.38
  0
LINE
  8
0
 10
34.604
 11
34.777
 20
-18.38
 21
-18.784
  0
LINE
  8
0
 10
34.777
 11
34.898
 20
-18.784
 21
-19.206
  0
LINE
  8
0
 10
34.898
 11
34.965
 20
-19.206
 21
-19.64
  0
LINE
  8
0
 10
34.965
 11
34.978
 20
-19.64
 21
-20.08
  0
LINE
  8
0
 10
34.978
 11
34.935
 20
-20.08
 21
-20.517
  0
LINE
  8
0
 10
34.935
 11
34.837
 20
-20.517
 21
-20.946
  0
LINE
  8
0
 10
34.837
 11
34.687
 20
-20.946
 21
-21.359
  0
LINE
  8
0
 10
34.687
 11
34.486
 20
-21.359
 21
-21.75
  0
LINE
  8
0
 10
34.486
 11
34.238
 20
-21.75
 21
-22.112
  0
LINE
  8
0
 10
34.238
 11
33.946
 20
-22.112
 21
-22.441
  0
LINE
  8
0
 10
33.946
 11
33.615
 20
-22.441
 21
-22.731
  0
LINE
  8
0
 10
33.615
 11
33.251
 20
-22.731
 21
-22.976
  0
LINE
  8
0
 10
33.251
 11
32.858
 20
-22.976
 21
-23.175
  0
LINE
  8
0
 10
32.858
 11
32.444
 20
-23.175
 21
-23.322
  0
LINE
  8
0
 10
32.444
 11
32.015
 20
-23.322
 21
-23.416
  0
LINE
  8
0
 10
32.015
 11
31.577
 20
-23.416
 21
-23.456
  0
LINE
  8
0
 10
31.577
 11
31.138
 20
-23.456
 21
-23.441
  0
LINE
  8
0
 10
31.138
 11
30.704
 20
-23.441
 21
-23.371
  0
LINE
  8
0
 10
30.704
 11
30.283
 20
-23.371
 21
-23.247
  0
LINE
  8
0
 10
30.283
 11
29.88
 20
-23.247
 21
-23.071
  0
LINE
  8
0
 10
29.88
 11
29.502
 20
-23.071
 21
-22.846
  0
LINE
  8
0
 10
29.502
 11
29.156
 20
-22.846
 21
-22.575
  0
LINE
  8
0
 10
29.156
 11
28.846
 20
-22.575
 21
-22.263
  0
LINE
  8
0
 10
28.846
 11
28.578
 20
-22.263
 21
-21.915
  0
LINE
  8
0
 10
28.578
 11
28.356
 20
-21.915
 21
-21.536
  0
LINE
  8
0
 10
28.356
 11
28.183
 20
-21.536
 21
-21.132
  0
LINE
  8
0
 10
28.183
 11
28.061
 20
-21.132
 21
-20.709
  0
LINE
  8
0
 10
28.061
 11
27.994
 20
-20.709
 21
-20.275
  0
LINE
  8
0
 10
27.994
 11
27.982
 20
-20.275
 21
-19.836
  0
LINE
  8
0
 10
29.491
 11
29.525
 20
-2.634
 21
-2.196
  0
LINE
  8
0
 10
29.525
 11
29.614
 20
-2.196
 21
-1.765
  0
LINE
  8
0
 10
29.614
 11
29.755
 20
-1.765
 21
-1.349
  0
LINE
  8
0
 10
29.755
 11
29.948
 20
-1.349
 21
-0.954
  0
LINE
  8
0
 10
29.948
 11
30.188
 20
-0.954
 21
-0.586
  0
LINE
  8
0
 10
30.188
 11
30.473
 20
-0.586
 21
-0.251
  0
LINE
  8
0
 10
30.473
 11
30.798
 20
-0.251
 21
0.045
  0
LINE
  8
0
 10
30.798
 11
31.157
 20
0.045
 21
0.298
  0
LINE
  8
0
 10
31.157
 11
31.545
 20
0.298
 21
0.505
  0
LINE
  8
0
 10
31.545
 11
31.956
 20
0.505
 21
0.661
  0
LINE
  8
0
 10
31.956
 11
32.383
 20
0.661
 21
0.764
  0
LINE
  8
0
 10
32.383
 11
32.82
 20
0.764
 21
0.813
  0
LINE
  8
0
 10
32.82
 11
33.26
 20
0.813
 21
0.807
  0
LINE
  8
0
 10
33.26
 11
33.695
 20
0.807
 21
0.746
  0
LINE
  8
0
 10
33.695
 11
34.119
 20
0.746
 21
0.63
  0
LINE
  8
0
 10
34.119
 11
34.525
 20
0.63
 21
0.463
  0
LINE
  8
0
 10
34.525
 11
34.908
 20
0.463
 21
0.246
  0
LINE
  8
0
 10
34.908
 11
35.259
 20
0.246
 21
-0.017
  0
LINE
  8
0
 10
35.259
 11
35.576
 20
-0.017
 21
-0.323
  0
LINE
  8
0
 10
35.576
 11
35.851
 20
-0.323
 21
-0.665
  0
LINE
  8
0
 10
35.851
 11
36.081
 20
-0.665
 21
-1.04
  0
LINE
  8
0
 10
36.081
 11
36.263
 20
-1.04
 21
-1.44
  0
LINE
  8
0
 10
36.263
 11
36.393
 20
-1.44
 21
-1.86
  0
LINE
  8
0
 10
36.393
 11
36.469
 20
-1.86
 21
-2.293
  0
LINE
  8
0
 10
36.469
 11
36.491
 20
-2.293
 21
-2.732
  0
LINE
  8
0
 10
36.491
 11
36.457
 20
-2.732
 21
-3.17
  0
LINE
  8
0
 10
36.457
 11
36.369
 20
-3.17
 21
-3.6
  0
LINE
  8
0
 10
36.369
 11
36.227
 20
-3.6
 21
-4.017
  0
LINE
  8
0
 10
36.227
 11
36.034
 20
-4.017
 21
-4.412
  0
LINE
  8
0
 10
36.034
 11
35.794
 20
-4.412
 21
-4.779
  0
LINE
  8
0
 10
35.794
 11
35.509
 20
-4.779
 21
-5.114
  0
LINE
  8
0
 10
35.509
 11
35.184
 20
-5.114
 21
-5.41
  0
LINE
  8
0
 10
35.184
 11
34.825
 20
-5.41
 21
-5.664
  0
LINE
  8
0
 10
34.825
 11
34.437
 20
-5.664
 21
-5.87
  0
LINE
  8
0
 10
34.437
 11
34.026
 20
-5.87
 21
-6.026
  0
LINE
  8
0
 10
34.026
 11
33.599
 20
-6.026
 21
-6.13
  0
LINE
  8
0
 10
33.599
 11
33.162
 20
-6.13
 21
-6.179
  0
LINE
  8
0
 10
33.162
 11
32.723
 20
-6.179
 21
-6.172
  0
LINE
  8
0
 10
32.723
 11
32.287
 20
-6.172
 21
-6.111
  0
LINE
  8
0
 10
32.287
 11
31.863
 20
-6.111
 21
-5.996
  0
LINE
  8
0
 10
31.863
 11
31.457
 20
-5.996
 21
-5.829
  0
LINE
  8
0
 10
31.457
 11
31.075
 20
-5.829
 21
-5.611
  0
LINE
  8
0
 10
31.075
 11
30.723
 20
-5.611
 21
-5.348
  0
LINE
  8
0
 10
30.723
 11
30.406
 20
-5.348
 21
-5.043
  0
LINE
  8
0
 10
30.406
 11
30.131
 20
-5.043
 21
-4.7
  0
LINE
  8
0
 10
30.131
 11
29.901
 20
-4.7
 21
-4.326
  0
LINE
  8
0
 10
29.901
 11
29.719
 20
-4.326
 21
-3.926
  0
LINE
  8
0
 10
29.719
 11
29.589
 20
-3.926
 21
-3.506
  0
LINE
  8
0
 10
29.589
 11
29.513
 20
-3.506
 21
-3.073
  0
LINE
  8
0
 10
29.513
 11
29.491
 20
-3.073
 21
-2.634
  0
ENDSEC
  0
SECTION
  2
OBJECTS
  0
DICTIONARY
  0
ENDSEC
  0
EOF
